<svg width="20" height="21" viewBox="0 0 20 21" fill="none" xmlns="http://www.w3.org/2000/svg">
<g id="lightning-bolt">
<path id="Vector" fill-rule="evenodd" clip-rule="evenodd" d="M11.235 1.546C11.4279 1.60984 11.5963 1.73678 11.7159 1.90836C11.8355 2.07993 11.9 2.28719 11.9 2.5V7.5H15.7C15.8738 7.49992 16.0442 7.55001 16.1928 7.64483C16.3415 7.73964 16.4625 7.87554 16.5428 8.03774C16.6232 8.19995 16.6597 8.38223 16.6484 8.56477C16.6372 8.7473 16.5786 8.92309 16.479 9.073L9.829 19.073C9.71326 19.2475 9.54764 19.3787 9.35622 19.4473C9.16481 19.5159 8.95759 19.5184 8.76471 19.4545C8.57184 19.3906 8.40337 19.2635 8.28382 19.0919C8.16427 18.9202 8.09987 18.7129 8.1 18.5V13.5H4.3C4.12623 13.5001 3.95576 13.45 3.80716 13.3552C3.65855 13.2604 3.5375 13.1245 3.45717 12.9623C3.37684 12.8001 3.34032 12.6178 3.35157 12.4352C3.36283 12.2527 3.42143 12.0769 3.521 11.927L10.171 1.927C10.2869 1.75279 10.4526 1.62201 10.6439 1.55368C10.8353 1.48534 11.0423 1.483 11.235 1.547V1.546Z" fill="white"/>
</g>
</svg>
