<svg width="30" height="28" viewBox="0 0 30 28" fill="none" xmlns="http://www.w3.org/2000/svg">
<path fill-rule="evenodd" clip-rule="evenodd" d="M25.5028 15.8434C25.9499 16.0651 26.2948 16.4151 26.5375 16.7651C27.0102 17.4885 26.9719 18.3751 26.512 19.1568L25.6178 20.5568C25.1451 21.3034 24.2637 21.7701 23.3567 21.7701C22.9096 21.7701 22.4114 21.6535 22.0026 21.4201C21.6705 21.2218 21.2872 21.1518 20.8785 21.1518C19.6138 21.1518 18.5535 22.1201 18.5152 23.2751C18.5152 24.6168 17.3399 25.6668 15.8709 25.6668H14.1335C12.6517 25.6668 11.4764 24.6168 11.4764 23.2751C11.4509 22.1201 10.3906 21.1518 9.12594 21.1518C8.70439 21.1518 8.32115 21.2218 8.00179 21.4201C7.59301 21.6535 7.08203 21.7701 6.6477 21.7701C5.72793 21.7701 4.8465 21.3034 4.37384 20.5568L3.4924 19.1568C3.01975 18.3984 2.9942 17.4885 3.46685 16.7651C3.67125 16.4151 4.05448 16.0651 4.48881 15.8434C4.8465 15.6801 5.07644 15.4118 5.2936 15.0968C5.93233 14.0934 5.54909 12.7751 4.46326 12.1801C3.19859 11.5151 2.78981 10.0335 3.51795 8.87845L4.37384 7.50178C5.11476 6.34678 6.69879 5.93845 7.97624 6.61512C9.08762 7.17512 10.5311 6.80178 11.1826 5.81012C11.387 5.48345 11.502 5.13345 11.4764 4.78345C11.4509 4.32845 11.5914 3.89678 11.8341 3.54678C12.3068 2.82345 13.1627 2.35678 14.0952 2.33345H15.8964C16.8417 2.33345 17.6976 2.82345 18.1703 3.54678C18.4002 3.89678 18.5535 4.32845 18.5152 4.78345C18.4896 5.13345 18.6046 5.48345 18.809 5.81012C19.4605 6.80178 20.904 7.17512 22.0282 6.61512C23.2928 5.93845 24.8896 6.34678 25.6178 7.50178L26.4737 8.87845C27.2146 10.0335 26.8058 11.5151 25.5284 12.1801C24.4425 12.7751 24.0593 14.0934 24.7108 15.0968C24.9152 15.4118 25.1451 15.6801 25.5028 15.8434ZM11.387 14.0118C11.387 15.8435 13.0094 17.3018 15.015 17.3018C17.0206 17.3018 18.6046 15.8435 18.6046 14.0118C18.6046 12.1801 17.0206 10.7101 15.015 10.7101C13.0094 10.7101 11.387 12.1801 11.387 14.0118Z" fill="#8A8A8A"/>
</svg>
