<svg width="30" height="28" viewBox="0 0 30 28" fill="none" xmlns="http://www.w3.org/2000/svg">
<path fill-rule="evenodd" clip-rule="evenodd" d="M25.5027 15.8434C25.9498 16.0651 26.2947 16.4151 26.5374 16.7651C27.0101 17.4885 26.9718 18.3751 26.5119 19.1568L25.6177 20.5568C25.145 21.3034 24.2636 21.7701 23.3566 21.7701C22.9095 21.7701 22.4113 21.6535 22.0025 21.4201C21.6703 21.2218 21.2871 21.1518 20.8783 21.1518C19.6137 21.1518 18.5534 22.1201 18.5151 23.2751C18.5151 24.6168 17.3398 25.6668 15.8707 25.6668H14.1334C12.6516 25.6668 11.4763 24.6168 11.4763 23.2751C11.4508 22.1201 10.3905 21.1518 9.12582 21.1518C8.70426 21.1518 8.32103 21.2218 8.00167 21.4201C7.59288 21.6535 7.08191 21.7701 6.64757 21.7701C5.72781 21.7701 4.84637 21.3034 4.37372 20.5568L3.49228 19.1568C3.01963 18.3984 2.99408 17.4885 3.46673 16.7651C3.67112 16.4151 4.05436 16.0651 4.48869 15.8434C4.84637 15.6801 5.07631 15.4118 5.29348 15.0968C5.9322 14.0934 5.54897 12.7751 4.46314 12.1801C3.19847 11.5151 2.78968 10.0335 3.51783 8.87845L4.37372 7.50178C5.11464 6.34678 6.69867 5.93845 7.97612 6.61512C9.0875 7.17512 10.531 6.80178 11.1825 5.81012C11.3869 5.48345 11.5019 5.13345 11.4763 4.78345C11.4508 4.32845 11.5913 3.89678 11.834 3.54678C12.3067 2.82345 13.1626 2.35678 14.0951 2.33345H15.8963C16.8416 2.33345 17.6975 2.82345 18.1701 3.54678C18.4001 3.89678 18.5534 4.32845 18.5151 4.78345C18.4895 5.13345 18.6045 5.48345 18.8089 5.81012C19.4604 6.80178 20.9039 7.17512 22.028 6.61512C23.2927 5.93845 24.8895 6.34678 25.6177 7.50178L26.4735 8.87845C27.2145 10.0335 26.8057 11.5151 25.5282 12.1801C24.4424 12.7751 24.0592 14.0934 24.7107 15.0968C24.9151 15.4118 25.145 15.6801 25.5027 15.8434ZM11.3869 14.0118C11.3869 15.8435 13.0093 17.3018 15.0148 17.3018C17.0204 17.3018 18.6045 15.8435 18.6045 14.0118C18.6045 12.1801 17.0204 10.7101 15.0148 10.7101C13.0093 10.7101 11.3869 12.1801 11.3869 14.0118Z" fill="#019524"/>
</svg>
