<svg width="16" height="17" viewBox="0 0 16 17" fill="none" xmlns="http://www.w3.org/2000/svg">
<g id="chevron-right">
<path id="Vector" fill-rule="evenodd" clip-rule="evenodd" d="M5.62327 12.356C5.47873 12.1984 5.39752 11.9848 5.39752 11.762C5.39752 11.5392 5.47873 11.3256 5.62327 11.168L8.16234 8.40141L5.62327 5.63483C5.48282 5.47637 5.4051 5.26415 5.40686 5.04387C5.40862 4.82359 5.48971 4.61287 5.63267 4.4571C5.77563 4.30133 5.96901 4.21298 6.17118 4.21106C6.37335 4.20915 6.56812 4.29383 6.71354 4.44687L9.79773 7.80743C9.94228 7.96498 10.0235 8.17864 10.0235 8.40141C10.0235 8.62419 9.94228 8.83784 9.79773 8.99539L6.71354 12.356C6.56894 12.5135 6.37286 12.6019 6.16841 12.6019C5.96395 12.6019 5.76787 12.5135 5.62327 12.356Z" fill="white"/>
</g>
</svg>
