<svg width="24" height="24" viewBox="0 0 24 24" fill="none" xmlns="http://www.w3.org/2000/svg">
<path fill-rule="evenodd" clip-rule="evenodd" d="M20.4022 13.5805C20.7599 13.7705 21.0358 14.0705 21.23 14.3705C21.6081 14.9905 21.5775 15.7505 21.2096 16.4205L20.4942 17.6205C20.1161 18.2605 19.4109 18.6605 18.6853 18.6605C18.3277 18.6605 17.9291 18.5605 17.6021 18.3605C17.3364 18.1905 17.0298 18.1305 16.7027 18.1305C15.691 18.1305 14.8428 18.9605 14.8121 19.9505C14.8121 21.1005 13.8719 22.0005 12.6967 22.0005H11.3068C10.1213 22.0005 9.18113 21.1005 9.18113 19.9505C9.16069 18.9605 8.31247 18.1305 7.30073 18.1305C6.96348 18.1305 6.6569 18.1905 6.40141 18.3605C6.07438 18.5605 5.6656 18.6605 5.31813 18.6605C4.58232 18.6605 3.87717 18.2605 3.49905 17.6205L2.7939 16.4205C2.41577 15.7705 2.39533 14.9905 2.77346 14.3705C2.93697 14.0705 3.24356 13.7705 3.59102 13.5805C3.87717 13.4405 4.06112 13.2105 4.23486 12.9405C4.74584 12.0805 4.43925 10.9505 3.57059 10.4405C2.55885 9.87049 2.23182 8.60049 2.81434 7.61049L3.49905 6.43049C4.09178 5.44049 5.35901 5.09049 6.38097 5.67049C7.27007 6.15049 8.42488 5.83049 8.94608 4.98049C9.10959 4.70049 9.20157 4.40049 9.18113 4.10049C9.16069 3.71049 9.27311 3.34049 9.46728 3.04049C9.8454 2.42049 10.5301 2.02049 11.2761 2.00049H12.7171C13.4734 2.00049 14.1581 2.42049 14.5362 3.04049C14.7201 3.34049 14.8428 3.71049 14.8121 4.10049C14.7917 4.40049 14.8837 4.70049 15.0472 4.98049C15.5684 5.83049 16.7232 6.15049 17.6225 5.67049C18.6342 5.09049 19.9117 5.44049 20.4942 6.43049L21.1789 7.61049C21.7716 8.60049 21.4446 9.87049 20.4227 10.4405C19.554 10.9505 19.2474 12.0805 19.7686 12.9405C19.9321 13.2105 20.1161 13.4405 20.4022 13.5805ZM9.10959 12.0105C9.10959 13.5805 10.4075 14.8305 12.012 14.8305C13.6164 14.8305 14.8837 13.5805 14.8837 12.0105C14.8837 10.4405 13.6164 9.18049 12.012 9.18049C10.4075 9.18049 9.10959 10.4405 9.10959 12.0105Z" fill="#787B8E"/>
</svg>
