<svg width="20" height="21" viewBox="0 0 20 21" fill="none" xmlns="http://www.w3.org/2000/svg">
<g id="Home">
<path id="Home_2" d="M7.13478 19.2211V16.1634C7.13478 15.3828 7.77217 14.7501 8.55844 14.7501H11.4326C11.8102 14.7501 12.1723 14.899 12.4393 15.164C12.7063 15.4291 12.8563 15.7885 12.8563 16.1634V19.2211C12.8539 19.5456 12.9821 19.8576 13.2124 20.0879C13.4427 20.3182 13.7561 20.4478 14.0829 20.4477H16.0438C16.9596 20.4501 17.8388 20.0906 18.4872 19.4486C19.1356 18.8065 19.5 17.9347 19.5 17.0256V8.31461C19.5 7.58021 19.1721 6.8836 18.6046 6.41242L11.934 1.12362C10.7737 0.196316 9.11111 0.226256 7.98539 1.19473L1.46701 6.41242C0.872741 6.86971 0.517552 7.56839 0.5 8.31461V17.0167C0.5 18.9116 2.04738 20.4477 3.95617 20.4477H5.87229C6.55123 20.4478 7.103 19.904 7.10792 19.23L7.13478 19.2211Z" fill="#588FEF"/>
</g>
</svg>
