<svg width="24" height="24" viewBox="0 0 24 24" fill="none" xmlns="http://www.w3.org/2000/svg">
<g id="Setting">
<path id="Setting_2" fill-rule="evenodd" clip-rule="evenodd" d="M22.5028 13.8434C22.9499 14.0651 23.2948 14.4151 23.5375 14.7651C24.0102 15.4885 23.9719 16.3751 23.512 17.1568L22.6178 18.5568C22.1451 19.3034 21.2637 19.7701 20.3567 19.7701C19.9096 19.7701 19.4114 19.6535 19.0026 19.4201C18.6705 19.2218 18.2872 19.1518 17.8785 19.1518C16.6138 19.1518 15.5535 20.1201 15.5152 21.2751C15.5152 22.6168 14.3399 23.6668 12.8709 23.6668H11.1335C9.6517 23.6668 8.47644 22.6168 8.47644 21.2751C8.4509 20.1201 7.39061 19.1518 6.12594 19.1518C5.70439 19.1518 5.32115 19.2218 5.00179 19.4201C4.59301 19.6535 4.08203 19.7701 3.6477 19.7701C2.72793 19.7701 1.8465 19.3034 1.37384 18.5568L0.492403 17.1568C0.0197474 16.3984 -0.00580154 15.4885 0.466854 14.7651C0.671245 14.4151 1.05448 14.0651 1.48881 13.8434C1.8465 13.6801 2.07644 13.4118 2.2936 13.0968C2.93233 12.0934 2.54909 10.7751 1.46326 10.1801C0.19859 9.51512 -0.210193 8.03345 0.517952 6.87845L1.37384 5.50178C2.11476 4.34678 3.69879 3.93845 4.97624 4.61512C6.08762 5.17512 7.53113 4.80178 8.18263 3.81012C8.38702 3.48345 8.50199 3.13345 8.47644 2.78345C8.4509 2.32845 8.59142 1.89678 8.83413 1.54678C9.30679 0.82345 10.1627 0.356784 11.0952 0.33345H12.8964C13.8417 0.33345 14.6976 0.82345 15.1703 1.54678C15.4002 1.89678 15.5535 2.32845 15.5152 2.78345C15.4896 3.13345 15.6046 3.48345 15.809 3.81012C16.4605 4.80178 17.904 5.17512 19.0282 4.61512C20.2928 3.93845 21.8896 4.34678 22.6178 5.50178L23.4737 6.87845C24.2146 8.03345 23.8058 9.51512 22.5284 10.1801C21.4425 10.7751 21.0593 12.0934 21.7108 13.0968C21.9152 13.4118 22.1451 13.6801 22.5028 13.8434ZM8.38702 12.0118C8.38702 13.8435 10.0094 15.3018 12.015 15.3018C14.0206 15.3018 15.6046 13.8435 15.6046 12.0118C15.6046 10.1801 14.0206 8.71012 12.015 8.71012C10.0094 8.71012 8.38702 10.1801 8.38702 12.0118Z" fill="#8A8A8A"/>
</g>
</svg>
