<svg width="21" height="20" viewBox="0 0 21 20" fill="none" xmlns="http://www.w3.org/2000/svg">
<g id="lightning-bolt">
<path id="Vector" fill-rule="evenodd" clip-rule="evenodd" d="M11.8 1.04596C12.003 1.1098 12.1804 1.23674 12.3062 1.40831C12.4321 1.57989 12.5 1.78715 12.5 1.99996V6.99996H16.5C16.6829 6.99987 16.8624 7.04997 17.0188 7.14478C17.1752 7.23959 17.3026 7.3755 17.3872 7.5377C17.4717 7.6999 17.5102 7.88219 17.4983 8.06472C17.4865 8.24726 17.4248 8.42304 17.32 8.57296L10.32 18.573C10.1982 18.7475 10.0238 18.8786 9.82234 18.9472C9.62085 19.0158 9.40272 19.0184 9.1997 18.9544C8.99667 18.8905 8.81933 18.7635 8.69349 18.5918C8.56765 18.4201 8.49986 18.2128 8.5 18V13H4.5C4.31708 13 4.13765 12.9499 3.98122 12.8551C3.82479 12.7603 3.69737 12.6244 3.61281 12.4622C3.52825 12.3 3.48981 12.1177 3.50165 11.9352C3.5135 11.7527 3.57519 11.5769 3.68 11.427L10.68 1.42696C10.802 1.25274 10.9764 1.12197 11.1778 1.05363C11.3792 0.985295 11.5972 0.982957 11.8 1.04696V1.04596Z" fill="white"/>
</g>
</svg>
