<svg width="17" height="28" viewBox="0 0 17 28" fill="none" xmlns="http://www.w3.org/2000/svg">
<path id="Vector" fill-rule="evenodd" clip-rule="evenodd" d="M0.829621 27.1792C0.298415 26.6534 0 25.9405 0 25.1971C0 24.4537 0.298415 23.7408 0.829621 23.215L10.1605 13.9831L0.829621 4.75113C0.31347 4.22239 0.0278642 3.51421 0.0343202 2.77914C0.0407762 2.04407 0.338777 1.34092 0.864137 0.821128C1.3895 0.301336 2.10018 0.00649354 2.84313 0.000105979C3.58607 -0.00628158 4.30183 0.276297 4.83624 0.786978L16.1704 12.001C16.7016 12.5267 17 13.2397 17 13.9831C17 14.7265 16.7016 15.4394 16.1704 15.9652L4.83624 27.1792C4.30487 27.7047 3.58428 28 2.83293 28C2.08158 28 1.36099 27.7047 0.829621 27.1792Z" fill="white"/>
</svg>
