<svg width="89" height="52" viewBox="0 0 89 52" fill="none" xmlns="http://www.w3.org/2000/svg">
<path id="Vector" fill-rule="evenodd" clip-rule="evenodd" d="M85.5755 49.1237C83.9202 50.7321 81.6754 51.6357 79.3348 51.6357C76.9942 51.6357 74.7494 50.7321 73.0941 49.1237L44.0267 20.8712L14.9593 49.1237C13.2945 50.6866 11.0647 51.5513 8.75033 51.5318C6.43591 51.5122 4.22198 50.6099 2.58538 49.0192C0.948777 47.4285 0.0204454 45.2766 0.000333683 43.0271C-0.019778 40.7776 0.86994 38.6103 2.47785 36.9922L37.786 2.67391C39.4413 1.06549 41.6861 0.161922 44.0267 0.161922C46.3673 0.161922 48.6121 1.06549 50.2674 2.67391L85.5755 36.9922C87.2303 38.6011 88.1599 40.783 88.1599 43.058C88.1599 45.333 87.2303 47.5148 85.5755 49.1237Z" fill="#018721" fill-opacity="0.7"/>
</svg>
