<svg width="14" height="9" viewBox="0 0 14 9" fill="none" xmlns="http://www.w3.org/2000/svg">
<path id="Vector" fill-rule="evenodd" clip-rule="evenodd" d="M0.607245 0.439211C0.860964 0.157985 1.20503 0 1.56379 0C1.92255 0 2.26662 0.157985 2.52034 0.439211L6.97566 5.37906L11.431 0.439211C11.6862 0.165955 12.0279 0.0147516 12.3827 0.0181695C12.7374 0.0215874 13.0768 0.179352 13.3276 0.457484C13.5785 0.735616 13.7207 1.11186 13.7238 1.50519C13.7269 1.89851 13.5905 2.27744 13.3441 2.56036L7.93221 8.56079C7.67849 8.84202 7.33442 9 6.97566 9C6.61691 9 6.27284 8.84202 6.01912 8.56079L0.607245 2.56036C0.353603 2.27905 0.211115 1.89756 0.211115 1.49979C0.211115 1.10201 0.353603 0.720523 0.607245 0.439211Z" fill="white"/>
</svg>
